<?xml version="1.0" encoding="utf-8"?>
<!-- Svg Vector Icons : http://www.onlinewebfonts.com/icon -->
<!DOCTYPE svg PUBLIC "-//W3C//DTD SVG 1.1//EN" "http://www.w3.org/Graphics/SVG/1.1/DTD/svg11.dtd">
<svg version="1.1" xmlns="http://www.w3.org/2000/svg" xmlns:xlink="http://www.w3.org/1999/xlink" x="0px" y="0px" viewBox="-100 -100 1200 1200" enable-background="new 0 0 1000 1000" xml:space="preserve">
<metadata> Svg Vector Icons : http://www.onlinewebfonts.com/icon </metadata>
<g><g transform="translate(0.000000,512.000000) scale(0.100000,-0.100000)"><path style="fill:#95999c" d="M3819.4,5002.1c-1404.9-189.5-2120.7-1362.8-1801.1-2951.4c116.7-583.8,438.3-1251.8,784.7-1628.8l114.8-124.4l-40.2-78.5c-348.4-683.3-1069.9-1328.3-1856.6-1655.6C559.8-1630,230.6-2026.2,133-2502.8c-44-212.5-44-1062.3,0-1146.5c61.2-118.7-101.5-112.9,2901.6-112.9h2742.8l84.2-114.8c112.9-155,384.7-411.5,547.4-518.7c671.8-442.2,1487.2-501.5,2205-160.8c821.1,386.6,1334.1,1246,1282.4,2141.8c-24.9,424.9-143.5,775.2-390.5,1156.1c-109.1,168.4-468.9,513-660.3,631.6c-664.2,411.5-1470,451.7-2168.6,111c-114.8-57.4-268-147.4-338.8-199.1L6210-812.7l-101.4,111c-204.8,220.1-449.8,579.9-591.4,869l-61.3,124.4l105.3,122.5c250.7,287.1,436.4,595.2,587.6,972.3c189.5,472.8,275.6,901.5,275.6,1387.7c0,419.2-63.2,742.6-208.6,1060.4c-275.6,599.1-809.6,1004.9-1504.4,1140.7C4519.9,5013.5,4014.6,5028.8,3819.4,5002.1z M4621.4,4571.4c564.6-105.3,972.3-403.9,1205.8-878.5c149.3-306.2,179.9-461.3,178-918.7c0-323.5-5.8-413.4-44-583.8C5735.4,1133.8,5099.9,297.4,4416.6,151.9c-179.9-38.3-317.7-36.4-490,7.7c-539.7,137.8-1025.9,650.8-1326.4,1399.1c-359.8,893.8-331.1,1795.3,74.7,2360c268,375.2,719.7,622.1,1253.7,683.3C4108.4,4623.1,4428.1,4607.8,4621.4,4571.4z M3513.2-125.6c222-105.3,352.2-137.8,618.2-147.4c189.5-7.6,258.4-1.9,400,30.6c158.9,38.3,405.8,141.6,537.8,225.8l57.4,36.4l101.4-179.9c187.6-331.1,405.8-635.5,601-838.3l95.7-99.5l-90-120.6c-126.3-172.3-287.1-511-342.6-723.5c-112.9-424.9-103.4-895.8,26.8-1274.7c21.1-61.3,38.3-114.8,38.3-118.7c0-1.9-1138.8-5.7-2528.4-5.7H500.5l9.6,369.4c9.6,390.5,24.9,480.4,122.5,673.7c67,130.1,313.9,371.3,446,434.5c57.4,28.7,212.5,103.4,344.5,164.6c696.7,333,1330.2,907.2,1720.7,1559.9l101.4,166.5l53.6-38.3C3327.5-31.8,3425.1-83.5,3513.2-125.6z M8036-736.2C9052.3-946.7,9693.5-1986,9433.2-3000.5c-80.4-306.2-233.5-564.6-488.1-819.2c-206.7-206.7-344.5-302.4-589.5-405.8c-796.2-342.6-1755.2-44-2239.4,698.6C5823.4-3077,5743-2491.3,5905.7-1982.2c202.9,637.4,740.7,1121.6,1393.4,1253.7C7486.7-690.2,7833.1-694.1,8036-736.2z"/><path style="fill:#95999c" d="M7536.4-1346.7c-78.5-63.2-84.2-99.5-84.2-547.4v-432.6h-432.6c-279.5,0-446-7.6-472.8-21c-72.7-36.4-109.1-97.6-109.1-185.7c0-67,11.5-93.8,55.5-139.7l55.5-55.5h451.7h451.7v-430.7c0-486.2,9.6-526.4,128.2-576.1c78.5-34.5,170.3-11.5,227.8,51.7c32.5,36.4,36.4,86.1,45.9,493.8l9.6,451.7l451.7,9.6c407.7,9.6,457.5,13.4,493.8,45.9c63.2,57.4,86.1,149.3,51.7,227.8c-49.8,118.7-90,128.2-576.1,128.2h-430.7v451.7v451.7l-55.5,55.5c-45.9,44-72.7,55.5-139.7,55.5C7609.2-1312.3,7559.4-1325.7,7536.4-1346.7z"/></g></g>
</svg>
