<?xml version="1.0" standalone="no"?><!DOCTYPE svg PUBLIC "-//W3C//DTD SVG 1.1//EN" "http://www.w3.org/Graphics/SVG/1.1/DTD/svg11.dtd"><svg class="icon" height="512" viewBox="0 0 1610 1024" version="1.1" xmlns="http://www.w3.org/2000/svg"><path d="M1599.468178 493.881417C1591.029906 421.642386 1494.686793 296.535771 1347.200366 190.286848L1267.366912 270.120302C1400.911872 363.198171 1485.478034 468.786688 1489.917367 503.787154 1481.00213 571.293403 1181.369856 896.533943 801.574034 897.708032 800.98699 897.671314 800.363301 897.671314 799.739611 897.671314 750.137198 897.597952 701.965678 891.764517 655.555145 881.932069L565.155474 972.295022C639.889262 994.381312 718.805504 1007.662446 800.106496 1007.772526L800.583461 1007.772526 800.656823 1007.735808C1222.313838 1007.185481 1582.591634 657.033655 1599.468178 514.023205 1599.981787 510.904686 1600.27531 507.712805 1600.27531 504.447561L1600.27531 503.86059 1600.27531 503.310263C1600.27531 500.081664 1599.981787 496.926501 1599.468178 493.881417L1599.468178 493.881417ZM1279.290587 24.709486C1268.540928 13.959826 1254.452663 8.603355 1240.364471 8.603355 1226.31285 8.603355 1212.224585 13.959826 1201.474999 24.709486L320.959049 905.225435C299.459803 926.724681 299.459803 961.541705 320.959049 983.041024 331.708709 993.79061 345.796974 999.183799 359.848521 999.183799 373.936786 999.183799 388.025051 993.79061 398.774638 983.041024L1279.290587 102.525074C1300.789833 81.025829 1300.789833 46.208731 1279.290587 24.709486L1279.290587 24.709486ZM110.321298 503.985298C119.236535 436.479049 418.538569 111.642112 797.894217 110.064494 798.774711 110.101211 799.655205 110.137856 800.499054 110.137856 850.138112 110.174574 898.272987 116.008009 944.68352 125.840384L1035.119835 35.404069C960.532846 13.354496 881.763328 0.11008 800.572416 0 799.691922 0 798.701349 0.036718 797.747419 0.073362 376.567296 1.650981 17.096704 351.47264 0.770487 494.042843 0.256805 497.087927 0 500.169728 0 503.288247L0 503.875218 0 504.462263C0 507.580709 0.256805 510.625865 0.733769 513.597586 8.915237 585.763255 105.331712 711.053312 253.074944 817.44896L332.87168 737.652224C199.326793 644.537637 114.760558 538.94912 110.321298 503.985298L110.321298 503.985298ZM800.121125 775.991369C950.139026 775.991369 1072.237275 653.929838 1072.237275 503.875218 1072.237275 491.658094 1071.136622 479.697774 1069.559003 467.920823L764.130085 773.313097C775.94368 774.890715 787.904 775.991369 800.121125 775.991369L800.121125 775.991369ZM528.023406 503.875218C528.023406 516.092416 529.124059 528.052736 530.701605 539.829614L836.057234 234.437339C824.280283 232.896439 812.319963 231.795785 800.139483 231.795785 650.084937 231.795785 528.023406 353.857317 528.023406 503.875218L528.023406 503.875218Z" /></svg>