<?xml version="1.0" encoding="utf-8"?>
<!-- Svg Vector Icons : http://www.onlinewebfonts.com/icon -->
<!DOCTYPE svg PUBLIC "-//W3C//DTD SVG 1.1//EN" "http://www.w3.org/Graphics/SVG/1.1/DTD/svg11.dtd">
<svg version="1.1" xmlns="http://www.w3.org/2000/svg" xmlns:xlink="http://www.w3.org/1999/xlink" x="0px" y="0px" viewBox="0 0 1000 1000" enable-background="new 0 0 1000 1000" xml:space="preserve">
<metadata> Svg Vector Icons : http://www.onlinewebfonts.com/icon </metadata>
<g><path d="M935.1,496.1c-16.4,0-29.7,13.5-29.7,30.1v390c0,7.6-6.1,13.7-13.5,13.7l-783.8-1.5c-7.5,0-13.5-6.3-13.5-14.1l0.8-778.6c0-7.7,6.2-14,13.7-14H499c16.6,0,30.1-13.8,30.1-30.7c0-17-13.5-30.7-30.1-30.7H109c-40.8,0-73.9,33.8-73.9,75.4v778.6c0,41.7,32.7,75.7,73,75.7h783.8c40.2,0,73-33.1,73-73.8v-390C964.8,509.6,951.5,496.1,935.1,496.1z"/><path d="M303.5,529.6c-4.8,3.9-8.4,9.4-10.1,15.9l-38,143c-4.4,16.4,4.9,33.4,20.7,37.9c2.6,0.8,5.3,1.1,7.9,1.1c0.8,0,1.6,0,2.4-0.1c0.7,0.1,1.5,0.1,2.3,0.1c1.7,0,3.4-0.2,5.2-0.5l161.6-29.6c7.4-1.4,13.7-5.5,18.1-11.2c0.9-0.7,1.7-1.5,2.6-2.4l466.1-484.9c14.6-15.1,22.6-35.3,22.6-56.7c0-21.4-8-41.5-22.6-56.7l-50.4-52.3c-30.1-31.2-79.1-31.2-109.2,0L305.8,527C305,527.8,304.2,528.7,303.5,529.6z M348.5,569.8L824.6,77c3.4-3.5,7.8-5.4,12.6-5.4c4.8,0,9.2,1.9,12.6,5.4l50.4,52.3c3.4,3.5,5.2,8.1,5.2,13.1c0,4.9-1.8,9.6-5.2,13.1l-464.3,483l-111.1,20.3L348.5,569.8z"/></g>
</svg>