<?xml version="1.0" standalone="no"?><!DOCTYPE svg PUBLIC "-//W3C//DTD SVG 1.1//EN" "http://www.w3.org/Graphics/SVG/1.1/DTD/svg11.dtd"><svg class="icon" height="512" viewBox="0 0 1024 1024" version="1.1" xmlns="http://www.w3.org/2000/svg"><path d="M512 215.04c-288.256 0-457.728 253.44-457.728 296.96s178.176 296.96 457.728 296.96 459.264-250.88 459.264-296.96-171.008-296.96-459.264-296.96z m385.024 333.312c-20.992 29.696-50.176 61.44-83.968 90.624-86.528 74.24-189.952 118.784-301.056 118.784-111.104 0-214.016-45.056-300.032-119.808-33.28-29.184-62.464-60.928-83.456-90.624-8.704-12.288-15.36-23.552-19.968-32.256l-1.536-3.072c0.512-1.024 1.024-2.048 1.536-3.584 4.096-8.704 10.752-19.968 18.944-32.256 20.48-29.696 48.64-61.44 81.408-90.624C293.888 310.784 397.312 266.24 512 266.24c115.2 0 218.624 44.544 304.128 118.784 33.28 28.672 61.44 60.416 81.408 90.112 8.192 12.288 14.848 23.552 18.944 32.256 0.512 1.536 1.536 3.072 2.048 4.096-0.512 1.024-1.024 2.56-2.048 4.096-4.096 9.216-10.752 20.48-19.456 32.768z" fill="#3D3D3D" /><path d="M514.56 363.52C431.104 363.52 363.52 431.104 363.52 514.56S431.104 665.6 514.56 665.6s151.04-67.584 151.04-151.04S598.016 363.52 514.56 363.52z m0 250.88c-55.296 0-99.84-44.544-99.84-99.84S459.264 414.72 514.56 414.72s99.84 44.544 99.84 99.84-44.544 99.84-99.84 99.84z" fill="#3D3D3D" /></svg>