<svg xmlns="http://www.w3.org/2000/svg" width="46" height="42" viewBox="0 0 46 42">
    <g fill="none" fill-rule="nonzero">
        <path fill="#333" d="M23 0C10.297 0 0 9.401 0 21c0 11.597 10.297 21 23 21s23-9.403 23-21C46 9.401 35.703 0 23 0z"/>
        <g fill="#FFF">
            <path d="M36.35 15.037l-8.261-3.78a.313.313 0 0 0-.12-.026l-.008-.001c-.1 0-.2.046-.254.126l-5.092 7.572 5.684 8.452 8.132-12.09c.059-.089.023-.205-.08-.253zM19.921 16.267v8.16l7.927 3.625zM28.54 28.364l7.278 3.33c.398.181.723-.002.723-.408V16.468l-8 11.896zM19.046 15.075l-7.623-3.487-.482-.22a.473.473 0 0 0-.195-.048.273.273 0 0 0-.208.087.343.343 0 0 0-.08.232v15.92c0 .271.217.593.483.713l7.49 3.427c.105.048.204.07.293.07.252 0 .428-.178.428-.48V15.235a.173.173 0 0 0-.106-.159z"/>
        </g>
    </g>
</svg>
