<svg xmlns="http://www.w3.org/2000/svg" xmlns:xlink="http://www.w3.org/1999/xlink" version="1.1" x="0px" y="0px" viewBox="0 0 52 52" style="enable-background:new 0 0 52 52;" xml:space="preserve"><style type="text/css">
	.st0{fill:none;stroke:#000000;stroke-width:2;stroke-linecap:round;stroke-linejoin:round;stroke-miterlimit:10;}
</style><g><g><path d="M40.2324219,49.5H11.7675781c-1.6542969,0-3-1.3457031-3-3V7.5957031c0-1.6542969,1.3457031-3,3-3h28.4648438    c1.6542969,0,3,1.3457031,3,3V46.5C43.2324219,48.1542969,41.8867188,49.5,40.2324219,49.5z M11.7675781,6.5957031    c-0.5512695,0-1,0.4482422-1,1V46.5c0,0.5517578,0.4487305,1,1,1h28.4648438c0.5512695,0,1-0.4482422,1-1V7.5957031    c0-0.5517578-0.4487305-1-1-1H11.7675781z"/></g><g><path d="M25.9970703,29.6152344c-2.7006836,0-5.237793-1.2001953-6.9604492-3.2919922    C17.7226563,24.7216797,17,22.6962891,17,20.6191406c0-4.9570313,4.0361328-8.9902344,8.9970703-8.9902344    C30.9614258,11.6289063,35,15.6621094,35,20.6191406c0,2.0771484-0.7250977,4.1035156-2.0415039,5.7080078    C31.237793,28.4169922,28.7011719,29.6152344,25.9970703,29.6152344z M25.9970703,13.6289063    C22.1386719,13.6289063,19,16.7646484,19,20.6191406c0,1.6162109,0.5615234,3.1904297,1.581543,4.4345703    c1.340332,1.6269531,3.3144531,2.5615234,5.4155273,2.5615234c2.1040039,0,4.078125-0.9326172,5.4165039-2.5585938    C32.4360352,23.8105469,33,22.234375,33,20.6191406C33,16.7646484,29.8583984,13.6289063,25.9970703,13.6289063z"/></g><g><path d="M25.9995117,22.9238281c-2.140625,0-3.8823242-1.7402344-3.8823242-3.8798828s1.7416992-3.8808594,3.8823242-3.8808594    c2.1411133,0,3.8828125,1.7412109,3.8828125,3.8808594S28.140625,22.9238281,25.9995117,22.9238281z M25.9995117,17.1630859    c-1.0380859,0-1.8823242,0.84375-1.8823242,1.8808594c0,1.0361328,0.8442383,1.8798828,1.8823242,1.8798828    s1.8828125-0.84375,1.8828125-1.8798828C27.8823242,18.0068359,27.0375977,17.1630859,25.9995117,17.1630859z"/></g><g><path d="M25.9970703,29.6152344c-2.7006836,0-5.237793-1.2001953-6.9604492-3.2919922l-0.4199219-0.5097656l0.3041992-0.5859375    c1.3754883-2.6542969,4.0869141-4.3027344,7.0761719-4.3027344c2.9975586,0,5.7094727,1.6513672,7.0776367,4.3095703    l0.3012695,0.5859375l-0.418457,0.5078125C31.237793,28.4169922,28.7011719,29.6152344,25.9970703,29.6152344z     M21.043457,25.5615234c1.3125,1.3125,3.0830078,2.0537109,4.9536133,2.0537109    c1.8740234,0,3.6450195-0.7392578,4.9550781-2.0498047c-1.0961914-1.6445313-2.9389648-2.640625-4.9550781-2.640625    C23.9868164,22.9248047,22.1445313,23.9199219,21.043457,25.5615234z"/></g><g><g><rect x="13.5" y="2.5" width="2" height="6.1914063"/></g><g><rect x="17.5" y="2.5" width="2" height="6.1914063"/></g><g><rect x="32.5" y="2.5" width="2" height="6.1914063"/></g><g><rect x="36.5" y="2.5" width="2" height="6.1914063"/></g></g><g><path d="M35.1342773,34.6103516h-18.269043c-0.5522461,0-1-0.4472656-1-1s0.4477539-1,1-1h18.269043c0.5522461,0,1,0.4472656,1,1    S35.6865234,34.6103516,35.1342773,34.6103516z"/></g><g><path d="M32.1855469,39.6064453h-12.371582c-0.5522461,0-1-0.4472656-1-1s0.4477539-1,1-1h12.371582c0.5522461,0,1,0.4472656,1,1    S32.737793,39.6064453,32.1855469,39.6064453z"/></g><g><path d="M35.1342773,44.6015625h-18.269043c-0.5522461,0-1-0.4472656-1-1s0.4477539-1,1-1h18.269043c0.5522461,0,1,0.4472656,1,1    S35.6865234,44.6015625,35.1342773,44.6015625z"/></g></g></svg>
